<?xml version="1.0" encoding="utf-8"?>
<!-- Generator: Adobe Illustrator 19.2.0, SVG Export Plug-In . SVG Version: 6.00 Build 0)  -->
<svg version="1.1" id="Laag_1" xmlns="http://www.w3.org/2000/svg" xmlns:xlink="http://www.w3.org/1999/xlink" x="0px" y="0px"
	 viewBox="0 0 98.1 28.2" style="enable-background:new 0 0 98.1 28.2;" xml:space="preserve">
<style type="text/css">
	.st0{fill:none;stroke:#FFFFFF;stroke-width:1.5;stroke-miterlimit:10;}
	.st1{fill:none;stroke:#FFFFFF;stroke-width:1.5;stroke-linecap:round;stroke-miterlimit:10;}
	.st2{fill:none;stroke:#FFFFFF;stroke-width:1.5;stroke-linecap:round;stroke-miterlimit:10;stroke-dasharray:0,7.0969;}
	.st3{fill:#FFFFFF;}
	.st4{font-family:'WorkSans-Light';}
	.st5{font-size:17.866px;}
</style>
<title>figment-logo</title>
<circle class="st0" cx="13.2" cy="13.1" r="8.3"/>
<circle class="st0" cx="13.2" cy="13.1" r="2.5"/>
<g>
	<g>
		<line class="st1" x1="4.4" y1="21.9" x2="4.4" y2="21.9"/>
		<path class="st2" d="M0.9,14.5c0-0.5-0.1-0.9-0.1-1.3c0-6.8,5.5-12.4,12.4-12.4s12.4,5.5,12.4,12.4c0,1.9-0.5,3.6-1.2,5.3"/>
		<line class="st1" x1="22.1" y1="21.7" x2="22.1" y2="21.7"/>
	</g>
</g>
<line class="st0" x1="13.2" y1="15.3" x2="13.2" y2="21.9"/>
<text transform="matrix(1 0 0 1 34.2154 22.2627)" class="st3 st4 st5">figment</text>
<g>
	<path class="st3" d="M9.4,21.2v3.3c0,1.9,1.5,3.5,3.4,3.5h0.9c1.9,0,3.4-1.5,3.4-3.5v-3.3 M13.8,26.3h-0.9c-0.8,0-1.5-0.6-1.8-1.3
		h4.5C15.3,25.7,14.6,26.3,13.8,26.3L13.8,26.3z M15.6,23.4H11v-0.8h4.7V23.4z"/>
</g>
</svg>
