<?xml version="1.0" encoding="utf-8"?>
<!-- Generator: Adobe Illustrator 19.2.0, SVG Export Plug-In . SVG Version: 6.00 Build 0)  -->
<svg version="1.1" id="Laag_1" xmlns="http://www.w3.org/2000/svg" xmlns:xlink="http://www.w3.org/1999/xlink" x="0px" y="0px"
	 viewBox="0 0 98 26.2" style="enable-background:new 0 0 98 26.2;" xml:space="preserve">
<style type="text/css">
	.st0{fill:#FFFFFF;}
</style>
<title>figment-logo</title>
<path class="st0" d="M36.7,9.5c-0.3-0.2-0.7-0.2-1.1-0.2c-0.8,0-1.2,0.6-1.2,1.7V12h1.9v1.8h-1.9v8h-2.3v-8h-1.3v-1.7l1.3-0.1v-1
	c0-0.5,0.1-1,0.2-1.4c0.1-0.4,0.3-0.8,0.6-1.1c0.3-0.3,0.6-0.6,1-0.7c0.5-0.2,1-0.3,1.5-0.3c0.6,0,1.2,0.1,1.8,0.3L36.7,9.5z
	 M39.6,10.2c-0.4,0-0.7-0.1-1-0.4c-0.3-0.2-0.4-0.6-0.4-0.9c0-0.4,0.1-0.7,0.4-1c0.6-0.5,1.4-0.5,2,0c0.3,0.3,0.4,0.6,0.4,1
	c0,0.4-0.1,0.7-0.4,0.9C40.3,10.1,40,10.3,39.6,10.2L39.6,10.2z M38.4,12h2.3v9.9h-2.3V12z M43,23.6c0-0.4,0.1-0.8,0.4-1.1
	c0.3-0.4,0.6-0.7,1-1v0c-0.3-0.2-0.5-0.4-0.6-0.6c-0.2-0.3-0.3-0.6-0.2-1c0-0.4,0.1-0.7,0.3-1c0.2-0.3,0.5-0.5,0.8-0.7v-0.1
	c-0.4-0.3-0.7-0.6-0.9-1c-0.3-0.5-0.4-1-0.4-1.6c0-0.5,0.1-1,0.3-1.5c0.2-0.4,0.5-0.8,0.8-1.1c0.4-0.3,0.8-0.5,1.2-0.7
	c0.5-0.2,1-0.2,1.5-0.2c0.3,0,0.5,0,0.8,0.1c0.2,0,0.5,0.1,0.7,0.2h3.5v1.7h-1.8c0.2,0.2,0.3,0.5,0.4,0.7c0.1,0.3,0.2,0.7,0.2,1
	c0,0.5-0.1,1-0.3,1.5c-0.2,0.4-0.5,0.7-0.8,1c-0.3,0.3-0.7,0.5-1.2,0.6c-0.5,0.2-1,0.2-1.5,0.2c-0.2,0-0.4,0-0.7-0.1
	c-0.2,0-0.5-0.1-0.7-0.2c-0.1,0.1-0.3,0.3-0.3,0.4c-0.1,0.2-0.1,0.4-0.1,0.5c0,0.3,0.1,0.5,0.3,0.7c0.4,0.2,0.8,0.3,1.2,0.2h1.8
	c0.9-0.1,1.9,0.1,2.7,0.6c0.6,0.4,1,1.1,0.9,1.9c0,0.5-0.1,0.9-0.4,1.3c-0.2,0.4-0.6,0.8-1,1.1c-0.5,0.3-1.1,0.6-1.7,0.7
	c-0.7,0.2-1.4,0.3-2.2,0.3c-0.6,0-1.1-0.1-1.7-0.2c-0.5-0.1-0.9-0.3-1.3-0.5c-0.3-0.2-0.6-0.5-0.8-0.8C43.1,24.4,43,24,43,23.6z
	 M45.7,22c-0.4,0.3-0.7,0.8-0.7,1.3c0,0.4,0.3,0.8,0.7,1c0.6,0.3,1.2,0.4,1.9,0.4c0.7,0,1.4-0.1,1.9-0.5c0.4-0.2,0.7-0.6,0.7-1.1
	c0-0.3-0.1-0.6-0.5-0.8c-0.4-0.2-0.9-0.2-1.3-0.2h-1.4C46.6,22.1,46.2,22.1,45.7,22L45.7,22z M47.2,17.3c0.5,0,0.9-0.2,1.2-0.5
	c0.4-0.4,0.5-0.9,0.5-1.5c0-0.5-0.1-1-0.5-1.4c-0.3-0.3-0.8-0.5-1.2-0.5c-0.5,0-0.9,0.2-1.2,0.5c-0.4,0.4-0.5,0.9-0.5,1.4
	c0,0.5,0.1,1.1,0.5,1.5C46.3,17.1,46.8,17.3,47.2,17.3L47.2,17.3z M54.1,12H56l0.2,1.4h0.1c0.4-0.4,0.9-0.8,1.4-1.1
	c0.5-0.3,1.1-0.5,1.7-0.5c0.6,0,1.2,0.1,1.7,0.5c0.5,0.3,0.8,0.8,1,1.3c0.4-0.5,0.9-0.9,1.5-1.3c0.5-0.3,1.1-0.5,1.7-0.5
	c0.9-0.1,1.8,0.3,2.3,1c0.5,0.9,0.8,1.9,0.7,2.9v6.2h-2.3V16c0.1-0.6-0.1-1.2-0.4-1.7c-0.3-0.3-0.7-0.5-1.1-0.5
	c-0.8,0.1-1.6,0.6-2.1,1.2v6.9H60V16c0.1-0.6-0.1-1.2-0.4-1.7c-0.3-0.3-0.7-0.5-1.2-0.5c-0.8,0.1-1.6,0.6-2.1,1.2v6.9h-2.3V12z
	 M70.4,16.9c0-0.7,0.1-1.5,0.4-2.2c0.2-0.6,0.6-1.2,1-1.6c0.4-0.4,0.9-0.8,1.5-1c0.5-0.2,1.1-0.4,1.7-0.4c0.6,0,1.2,0.1,1.8,0.3
	c0.5,0.2,0.9,0.5,1.3,0.9c0.4,0.4,0.6,0.9,0.8,1.5c0.2,0.6,0.2,1.3,0.2,1.9c0,0.4,0,0.7-0.1,1.1h-6.2c0.1,0.8,0.4,1.5,0.9,2.1
	c0.5,0.5,1.3,0.8,2,0.7c0.4,0,0.8-0.1,1.2-0.2c0.4-0.1,0.7-0.3,1.1-0.5l0.8,1.4c-0.5,0.3-1,0.6-1.6,0.8c-0.6,0.2-1.2,0.3-1.8,0.3
	c-0.7,0-1.3-0.1-1.9-0.4c-0.6-0.2-1.1-0.6-1.6-1c-0.4-0.5-0.8-1-1-1.6C70.5,18.4,70.4,17.7,70.4,16.9L70.4,16.9z M77,16
	c0-0.7-0.1-1.3-0.5-1.9c-0.4-0.4-0.9-0.7-1.5-0.6c-0.6,0-1.1,0.2-1.6,0.6c-0.5,0.5-0.8,1.2-0.8,1.8H77z M81.2,12h1.9l0.2,1.3h0.1
	c0.4-0.4,0.9-0.8,1.4-1.1c0.5-0.3,1.2-0.5,1.8-0.5c0.9-0.1,1.8,0.3,2.3,1c0.5,0.9,0.8,1.9,0.7,2.9v6.2h-2.3V16
	c0.1-0.6-0.1-1.2-0.3-1.7c-0.3-0.4-0.7-0.5-1.2-0.5c-0.4,0-0.8,0.1-1.1,0.3c-0.4,0.3-0.8,0.6-1.1,0.9v6.9h-2.3V12z M92.8,13.8h-1.4
	v-1.7l1.5-0.1l0.3-2.7h1.9V12h2.5v1.8h-2.5v4.7c0,1.2,0.5,1.7,1.4,1.7c0.2,0,0.4,0,0.5-0.1c0.2,0,0.3-0.1,0.5-0.2l0.4,1.7
	c-0.3,0.1-0.7,0.2-1,0.3c-0.4,0.1-0.7,0.1-1.1,0.1c-0.5,0-1-0.1-1.5-0.3c-0.4-0.2-0.7-0.4-1-0.7c-0.2-0.3-0.4-0.7-0.5-1.1
	c-0.1-0.5-0.2-1-0.2-1.5L92.8,13.8L92.8,13.8z"/>
<path class="st0" d="M13.9,16.1l-0.4,0.3v2.4h-1.8v-5.5c1.4-0.5,2.1-2,1.6-3.4c-0.5-1.4-2-2.1-3.4-1.6s-2.1,2-1.6,3.4
	c0.3,0.8,0.9,1.4,1.6,1.6v5.5H8v-2.4l-0.4-0.3c-3-1.7-4-5.6-2.3-8.5s5.6-4,8.5-2.3s4,5.6,2.3,8.5C15.6,14.8,14.8,15.6,13.9,16.1
	 M9.9,10.7c0-0.5,0.4-0.9,0.9-0.9s0.9,0.4,0.9,0.9s-0.4,0.9-0.9,0.9S9.9,11.2,9.9,10.7L9.9,10.7 M14.8,21.5h-8
	c-0.2,0-0.4-0.3-0.4-0.5c0-0.2,0.2-0.3,0.4-0.4h8c0.2,0,0.4,0.3,0.4,0.5C15.1,21.3,15,21.4,14.8,21.5 M13.9,24.1H7.6
	c-0.2,0-0.5-0.1-0.5-0.4c0-0.2,0.1-0.5,0.4-0.5c0,0,0.1,0,0.1,0h6.3c0.2,0,0.5,0.1,0.5,0.4c0,0.2-0.1,0.5-0.4,0.5
	C13.9,24.1,13.9,24.1,13.9,24.1 M18.8,10.7c0-4.4-3.7-8-8.1-7.9s-8,3.7-7.9,8.1c0,2.6,1.3,5,3.5,6.5v1.4c-1.2,0.2-2,1.4-1.7,2.6
	c0.1,0.6,0.5,1.1,1,1.5c-0.4,1.1,0.2,2.4,1.3,2.9c0.2,0.1,0.5,0.1,0.8,0.1h6.3c1.2,0,2.2-1,2.2-2.2c0-0.3,0-0.5-0.1-0.8
	c1-0.7,1.4-2,0.7-3.1c-0.3-0.5-0.9-0.9-1.5-1v-1.4C17.4,15.9,18.8,13.4,18.8,10.7"/>
<rect x="9.8" y="0" class="st0" width="1.8" height="1.8"/>
<rect x="4.9" y="1.3" transform="matrix(0.8659 -0.5002 0.5002 0.8659 -0.3258 3.2037)" class="st0" width="1.8" height="1.8"/>
<rect x="1.3" y="4.9" transform="matrix(0.5002 -0.8659 0.8659 0.5002 -3.9251 4.8208)" class="st0" width="1.8" height="1.8"/>
<rect y="9.8" class="st0" width="1.8" height="1.8"/>
<rect x="1.3" y="14.7" transform="matrix(0.8662 -0.4997 0.4997 0.8662 -7.5212 3.2008)" class="st0" width="1.8" height="1.8"/>
<rect x="18.3" y="14.7" transform="matrix(0.5002 -0.8659 0.8659 0.5002 -3.9246 24.4808)" class="st0" width="1.8" height="1.8"/>
<rect x="19.7" y="9.8" class="st0" width="1.8" height="1.8"/>
<rect x="18.3" y="4.9" transform="matrix(0.8659 -0.5002 0.5002 0.8659 -0.3261 10.4035)" class="st0" width="1.8" height="1.8"/>
<rect x="14.8" y="1.3" transform="matrix(0.4997 -0.8662 0.8662 0.4997 5.9092 14.6612)" class="st0" width="1.8" height="1.8"/>
</svg>
