<?xml version="1.0" encoding="utf-8"?>
<!-- Generator: Adobe Illustrator 19.2.0, SVG Export Plug-In . SVG Version: 6.00 Build 0)  -->
<svg version="1.1" id="Laag_1" xmlns="http://www.w3.org/2000/svg" xmlns:xlink="http://www.w3.org/1999/xlink" x="0px" y="0px"
	 viewBox="0 0 21.5 25.9" style="enable-background:new 0 0 21.5 25.9;" xml:space="preserve">
<style type="text/css">
	.st0{fill:#FFFFFF;}
</style>
<title>figment-logo</title>
<path class="st0" d="M13.9,16.1l-0.4,0.3v2.4h-1.8v-5.5c1.4-0.5,2.1-2,1.6-3.4c-0.5-1.4-2-2.1-3.4-1.6s-2.1,2-1.6,3.4
	c0.3,0.8,0.9,1.4,1.6,1.6v5.5H8v-2.4l-0.4-0.3c-3-1.7-4-5.6-2.3-8.5s5.6-4,8.5-2.3s4,5.6,2.3,8.5C15.6,14.8,14.8,15.6,13.9,16.1
	 M9.9,10.7c0-0.5,0.4-0.9,0.9-0.9s0.9,0.4,0.9,0.9s-0.4,0.9-0.9,0.9S9.9,11.2,9.9,10.7L9.9,10.7 M14.8,21.5h-8
	c-0.2,0-0.4-0.3-0.4-0.5s0.2-0.3,0.4-0.4h8c0.2,0,0.4,0.3,0.4,0.5C15.1,21.3,15,21.4,14.8,21.5 M13.9,24.1H7.6
	c-0.2,0-0.5-0.1-0.5-0.4c0-0.2,0.1-0.5,0.4-0.5h0.1h6.3c0.2,0,0.5,0.1,0.5,0.4c0,0.2-0.1,0.5-0.4,0.5C13.9,24.1,13.9,24.1,13.9,24.1
	 M18.8,10.7c0-4.4-3.7-8-8.1-7.9s-8,3.7-7.9,8.1c0,2.6,1.3,5,3.5,6.5v1.4c-1.2,0.2-2,1.4-1.7,2.6c0.1,0.6,0.5,1.1,1,1.5
	c-0.4,1.1,0.2,2.4,1.3,2.9c0.2,0.1,0.5,0.1,0.8,0.1H14c1.2,0,2.2-1,2.2-2.2c0-0.3,0-0.5-0.1-0.8c1-0.7,1.4-2,0.7-3.1
	c-0.3-0.5-0.9-0.9-1.5-1v-1.4C17.4,15.9,18.8,13.4,18.8,10.7"/>
<rect x="9.8" y="0" class="st0" width="1.8" height="1.8"/>
<rect x="4.9" y="1.3" transform="matrix(0.8659 -0.5002 0.5002 0.8659 -0.323 3.194)" class="st0" width="1.8" height="1.8"/>
<rect x="1.3" y="4.9" transform="matrix(0.5002 -0.8659 0.8659 0.5002 -3.9362 4.7932)" class="st0" width="1.8" height="1.8"/>
<rect y="9.8" class="st0" width="1.8" height="1.8"/>
<rect x="1.3" y="14.7" transform="matrix(0.8662 -0.4997 0.4997 0.8662 -7.4981 3.1807)" class="st0" width="1.8" height="1.8"/>
<rect x="18.3" y="14.8" transform="matrix(0.5002 -0.8659 0.8659 0.5002 -3.9567 24.4818)" class="st0" width="1.8" height="1.8"/>
<rect x="19.7" y="9.8" class="st0" width="1.8" height="1.8"/>
<rect x="18.3" y="4.9" transform="matrix(0.8659 -0.5002 0.5002 0.8659 -0.3297 10.3766)" class="st0" width="1.8" height="1.8"/>
<rect x="14.8" y="1.2" transform="matrix(0.4997 -0.8662 0.8662 0.4997 6.0027 14.6848)" class="st0" width="1.8" height="1.8"/>
</svg>
