<?xml version="1.0" encoding="utf-8"?>
<!-- Generator: Adobe Illustrator 19.2.0, SVG Export Plug-In . SVG Version: 6.00 Build 0)  -->
<svg version="1.1" id="Laag_1" xmlns="http://www.w3.org/2000/svg" xmlns:xlink="http://www.w3.org/1999/xlink" x="0px" y="0px"
	 viewBox="0 0 79.8 23.5" style="enable-background:new 0 0 79.8 23.5;" xml:space="preserve">
<style type="text/css">
	.st0{fill:#FFFFFF;}
	.st1{font-family:'SourceSansPro-Regular';}
	.st2{font-size:16.8313px;}
</style>
<title>figment-logo</title>
<text transform="matrix(1 0 0 1 25.0538 18.0901)" class="st0 st1 st2">figment</text>
<g>
	<g>
		<path class="st0" d="M7.6,15.1c0.5,0,0.9-0.1,1.3-0.3l3.6,3.6c-0.2,0.4-0.3,0.8-0.3,1.3c0,1.4,1.2,2.6,2.6,2.6
			c1.4,0,2.6-1.2,2.6-2.6c0-1.4-1.2-2.6-2.6-2.6c-0.5,0-0.9,0.1-1.3,0.3l-3.5-3.6c0.2-0.4,0.3-0.8,0.3-1.3c0-0.5-0.1-0.9-0.3-1.3
			l3.5-3.5C13.7,7.9,14.2,8,14.6,8c1.4,0,2.6-1.2,2.6-2.6c0-1.4-1.2-2.6-2.6-2.6c-1.4,0-2.6,1.2-2.6,2.6c0,0.5,0.1,0.9,0.3,1.3
			l-3.6,3.5C8.5,10,8,9.9,7.6,9.9C6.1,9.9,5,11.1,5,12.5C5,13.9,6.1,15.1,7.6,15.1L7.6,15.1z M14.7,18.4c0.7,0,1.2,0.5,1.2,1.2
			c0,0.7-0.5,1.2-1.2,1.2c-0.7,0-1.2-0.5-1.2-1.2C13.4,18.9,14,18.4,14.7,18.4L14.7,18.4z M14.7,4.2c0.7,0,1.2,0.5,1.2,1.2
			c0,0.7-0.5,1.2-1.2,1.2c-0.7,0-1.2-0.5-1.2-1.2C13.4,4.7,14,4.2,14.7,4.2L14.7,4.2z M7.6,11.3c0.7,0,1.2,0.5,1.2,1.2
			c0,0.7-0.5,1.2-1.2,1.2c-0.7,0-1.2-0.5-1.2-1.2C6.3,11.8,6.9,11.3,7.6,11.3L7.6,11.3z M7.6,11.3"/>
	</g>
</g>
<g>
	<path class="st0" d="M3.2,5.5L2,6.8l1.5,1.5l1.2-1.2L3.2,5.5z M0,11.7l0,1.7h2.4v-1.7H0z M3.5,16.8L2,18.3l1.2,1.2L4.6,18L3.5,16.8
		z M3.5,16.8"/>
</g>
</svg>
