<svg id="Laag_1" data-name="Laag 1" xmlns="http://www.w3.org/2000/svg" viewBox="0 0 97.96 26.19"><defs><style>.cls-1{fill:#e84546;}</style></defs><title>figment-logo</title><path class="cls-1" d="M36.74,9.48a2.65,2.65,0,0,0-1.08-.24q-1.25,0-1.24,1.67V12h1.93V13.8H34.41v8H32.1v-8H30.77V12.07L32.1,12v-1a5.29,5.29,0,0,1,.18-1.42,2.9,2.9,0,0,1,.58-1.12,2.7,2.7,0,0,1,1-.73,3.82,3.82,0,0,1,1.5-.26,4.94,4.94,0,0,1,1.81.34Zm2.85,0.76a1.47,1.47,0,0,1-1-.36,1.21,1.21,0,0,1-.4-0.94,1.24,1.24,0,0,1,.4-1,1.6,1.6,0,0,1,2,0,1.24,1.24,0,0,1,.4,1,1.21,1.21,0,0,1-.4.94A1.47,1.47,0,0,1,39.59,10.25ZM38.42,12h2.31v9.86H38.42V12ZM43,23.62a2,2,0,0,1,.36-1.15,3.38,3.38,0,0,1,1-1V21.43a2,2,0,0,1-.63-0.64,1.86,1.86,0,0,1-.25-1,1.79,1.79,0,0,1,.33-1.05A3.19,3.19,0,0,1,44.63,18V17.88a3.52,3.52,0,0,1-.89-1.05,3,3,0,0,1-.39-1.56,3.41,3.41,0,0,1,.32-1.51,3.36,3.36,0,0,1,.85-1.11A3.64,3.64,0,0,1,45.75,12a4.74,4.74,0,0,1,1.49-.23,4.16,4.16,0,0,1,.77.07,5.23,5.23,0,0,1,.67.17h3.53v1.71H50.41a2.34,2.34,0,0,1,.4.71,2.72,2.72,0,0,1,.16,1,3.38,3.38,0,0,1-.29,1.45,3,3,0,0,1-.79,1,3.49,3.49,0,0,1-1.18.64,4.73,4.73,0,0,1-1.47.22,3.81,3.81,0,0,1-.66-0.06,3.28,3.28,0,0,1-.68-0.2,2.09,2.09,0,0,0-.35.4,1,1,0,0,0-.13.54,0.76,0.76,0,0,0,.35.66,2.35,2.35,0,0,0,1.25.24h1.75a5.15,5.15,0,0,1,2.7.57,2,2,0,0,1,.91,1.86A2.69,2.69,0,0,1,52,24.08,3.38,3.38,0,0,1,51,25.19a5.64,5.64,0,0,1-1.66.73,8.12,8.12,0,0,1-2.18.27A7.85,7.85,0,0,1,45.48,26a4.29,4.29,0,0,1-1.3-.48,2.53,2.53,0,0,1-.85-0.8A2,2,0,0,1,43,23.62ZM45.71,22A1.65,1.65,0,0,0,45,23.28a1.14,1.14,0,0,0,.67,1,3.87,3.87,0,0,0,1.86.37,3.54,3.54,0,0,0,1.94-.47,1.34,1.34,0,0,0,.73-1.11,0.77,0.77,0,0,0-.45-0.78,3.29,3.29,0,0,0-1.3-.2H47.06A5.47,5.47,0,0,1,45.71,22h0Zm1.53-4.72a1.63,1.63,0,0,0,1.2-.51,2,2,0,0,0,.5-1.48,2,2,0,0,0-.49-1.44,1.62,1.62,0,0,0-1.21-.51,1.67,1.67,0,0,0-1.22.5,2,2,0,0,0-.5,1.45,2,2,0,0,0,.5,1.48A1.65,1.65,0,0,0,47.24,17.25ZM54.13,12H56l0.16,1.35h0.08a6.91,6.91,0,0,1,1.36-1.12,3,3,0,0,1,1.66-.46,3,3,0,0,1,1.74.46,2.87,2.87,0,0,1,1,1.31,7.93,7.93,0,0,1,1.47-1.27,3,3,0,0,1,1.71-.5,2.67,2.67,0,0,1,2.31,1,4.85,4.85,0,0,1,.74,2.9v6.18H65.91V15.95a3,3,0,0,0-.37-1.73,1.32,1.32,0,0,0-1.13-.5,3.11,3.11,0,0,0-2.07,1.22v6.89H60V15.95a3,3,0,0,0-.37-1.73,1.34,1.34,0,0,0-1.15-.5,3.11,3.11,0,0,0-2.07,1.22v6.89H54.13V12Zm16.28,4.94a5.85,5.85,0,0,1,.38-2.17,5,5,0,0,1,1-1.63,4.49,4.49,0,0,1,1.46-1,4.16,4.16,0,0,1,1.69-.36,4.29,4.29,0,0,1,1.77.34A3.45,3.45,0,0,1,78,13a4.24,4.24,0,0,1,.77,1.49A6.51,6.51,0,0,1,79,16.41a4.66,4.66,0,0,1-.1,1.08H72.66a3.25,3.25,0,0,0,.93,2.07,2.78,2.78,0,0,0,2,.72,3.63,3.63,0,0,0,1.19-.19,5.3,5.3,0,0,0,1.09-.53L78.64,21a7.09,7.09,0,0,1-1.57.76,5.45,5.45,0,0,1-1.81.3,5.12,5.12,0,0,1-1.91-.35,4.52,4.52,0,0,1-1.55-1,4.62,4.62,0,0,1-1-1.62A6,6,0,0,1,70.41,16.91ZM77,16a3,3,0,0,0-.49-1.85A1.76,1.76,0,0,0,75,13.52a2.17,2.17,0,0,0-1.55.63A3,3,0,0,0,72.64,16H77ZM81.23,12h1.91L83.3,13.3h0.08a7.83,7.83,0,0,1,1.44-1.1,3.44,3.44,0,0,1,1.8-.46,2.64,2.64,0,0,1,2.31,1,5,5,0,0,1,.72,2.9v6.18H87.34V15.95A3.07,3.07,0,0,0,87,14.22a1.36,1.36,0,0,0-1.18-.5,2.08,2.08,0,0,0-1.13.31,7.23,7.23,0,0,0-1.11.91v6.89H81.23V12ZM92.82,13.8H91.41V12.07l1.53-.1,0.28-2.69h1.93V12h2.51V13.8H95.15v4.7q0,1.73,1.39,1.73a2.45,2.45,0,0,0,.53-0.06A2.49,2.49,0,0,0,97.56,20L98,21.71A7.7,7.7,0,0,1,97,22a5.2,5.2,0,0,1-1.09.11,3.61,3.61,0,0,1-1.46-.26,2.46,2.46,0,0,1-1-.73A3,3,0,0,1,93,20a5.75,5.75,0,0,1-.17-1.46V13.8Z"/><path class="cls-1" d="M13.85,16.14l-0.44.26v2.37H11.62V13.24a2.68,2.68,0,1,0-1.79,0v5.53H8V16.4L7.6,16.14a6.26,6.26,0,1,1,6.25,0m-4-5.41a0.89,0.89,0,1,1,.89.89,0.89,0.89,0,0,1-.89-0.89m4.92,10.73h-8a0.45,0.45,0,0,1,0-.89h8a0.45,0.45,0,0,1,0,.89m-0.89,2.68H7.6a0.45,0.45,0,1,1,0-.89h6.26a0.45,0.45,0,1,1,0,.89m4.92-13.41A8,8,0,1,0,6.26,17.41v1.41a2.23,2.23,0,0,0-.74,4.08,2.22,2.22,0,0,0,2.08,3h6.26a2.22,2.22,0,0,0,2.08-3,2.23,2.23,0,0,0-.74-4.08V17.41a8.07,8.07,0,0,0,3.58-6.68"/><rect class="cls-1" x="9.83" width="1.79" height="1.79"/><rect class="cls-1" x="4.92" y="1.32" width="1.79" height="1.79" transform="translate(-0.33 3.2) rotate(-30.01)"/><rect class="cls-1" x="1.32" y="4.92" width="1.79" height="1.79" transform="translate(-3.93 4.82) rotate(-59.99)"/><rect class="cls-1" y="9.83" width="1.79" height="1.79"/><rect class="cls-1" x="1.32" y="14.75" width="1.79" height="1.79" transform="translate(-7.52 3.2) rotate(-29.98)"/><rect class="cls-1" x="18.35" y="14.75" width="1.79" height="1.79" transform="translate(-3.93 24.48) rotate(-59.99)"/><rect class="cls-1" x="19.67" y="9.83" width="1.79" height="1.79"/><rect class="cls-1" x="18.35" y="4.92" width="1.79" height="1.79" transform="translate(-0.33 10.4) rotate(-30.01)"/><rect class="cls-1" x="14.75" y="1.32" width="1.79" height="1.79" transform="translate(5.91 14.66) rotate(-60.02)"/></svg>