<?xml version="1.0" encoding="utf-8"?>
<!-- Generator: Adobe Illustrator 19.2.0, SVG Export Plug-In . SVG Version: 6.00 Build 0)  -->
<svg version="1.1" id="Laag_1" xmlns="http://www.w3.org/2000/svg" xmlns:xlink="http://www.w3.org/1999/xlink" x="0px" y="0px"
	 viewBox="0 0 81.5 81.5" style="enable-background:new 0 0 81.5 81.5;" xml:space="preserve">
<style type="text/css">
	.st0{fill:#FFFFFF;}
</style>
<path class="st0" d="M0.6,32.9v15.7c0,3.3,2.7,6,6,6h20.2v20.3c0,3.3,2.7,6,6,6h15.7c3.3,0,6-2.7,6-6V54.6h20.3c3.3,0,6-2.7,6-6
	V32.9c0-3.3-2.7-6-6-6H54.7V6.6c0-3.3-2.7-6-6-6H32.9c-3.3,0-6,2.7-6,6v20.3H6.6C3.4,26.9,0.6,29.6,0.6,32.9z"/>
</svg>
