<?xml version="1.0" encoding="utf-8"?>
<!-- Generator: Adobe Illustrator 19.2.0, SVG Export Plug-In . SVG Version: 6.00 Build 0)  -->
<svg version="1.1" id="Capa_1" xmlns="http://www.w3.org/2000/svg" xmlns:xlink="http://www.w3.org/1999/xlink" x="0px" y="0px"
	 viewBox="0 0 512 512" style="enable-background:new 0 0 512 512;" xml:space="preserve">
<g>
	<g>
		<path d="M26.3,153.6l292.2,292.2c3.2,3.2-2.5,0.3,152,63.9c11.2,4.6,24,2.1,32.6-6.5c8.6-8.6,11.2-21.4,6.5-32.6
			c-64.2-155.9-60.4-147.9-62.8-150.8c-0.3-0.4-0.7-0.8-1.1-1.2L153.6,26.3c-35.1-35.1-92.2-35.1-127.3,0S-8.8,118.5,26.3,153.6z
			 M445.9,467.1l21.2-21.2L482,482L445.9,467.1z M355.7,430l74.3-74.3l24.8,60.1l-38.9,38.9L355.7,430z M132.4,217.3l84.9-84.9
			l196.8,196.8l-84.9,84.9L132.4,217.3z M90,174.8L174.8,90l21.2,21.2l-84.9,84.9L90,174.8z M47.5,47.5c23.4-23.4,61.5-23.4,84.9,0
			l21.2,21.2l-84.9,84.9l-21.2-21.2C24.1,109,24.1,70.9,47.5,47.5z"/>
	</g>
</g>
</svg>
