<?xml version="1.0" encoding="utf-8"?>
<!-- Generator: Adobe Illustrator 19.2.0, SVG Export Plug-In . SVG Version: 6.00 Build 0)  -->
<svg version="1.1" id="Layer_1" xmlns="http://www.w3.org/2000/svg" xmlns:xlink="http://www.w3.org/1999/xlink" x="0px" y="0px"
	 viewBox="0 0 532 512" style="enable-background:new 0 0 532 512;" xml:space="preserve">
<style type="text/css">
	.st0{fill:#C6C7C9;stroke:#C6C7C9;stroke-width:5;stroke-miterlimit:10;}
</style>
<path class="st0" d="M377.6,11.6c-43.6,0-84.4,19.7-111.6,52.8c-27.2-33.1-68-52.8-111.6-52.8C74.8,11.6,10,76.4,10,156.1
	c0,62.4,37.2,134.5,110.5,214.4C177,432,238.4,479.6,255.9,492.7l10.1,7.6l10.1-7.6c17.5-13.1,78.9-60.7,135.3-122.2
	c73.3-79.9,110.5-152,110.5-214.4C522,76.4,457.2,11.6,377.6,11.6z M386.6,347.7C340.2,398.3,290.2,439.1,266,458
	c-24.2-18.8-74.2-59.7-120.6-110.3C78.9,275.2,43.8,209,43.8,156.1c0-61,49.7-110.7,110.7-110.7c40.2,0,77.3,21.9,96.8,57.1
	l14.8,26.6l14.8-26.6c19.5-35.2,56.6-57.1,96.8-57.1c61,0,110.7,49.7,110.7,110.7C488.2,209,453.1,275.2,386.6,347.7z"/>
</svg>
