<?xml version="1.0" encoding="utf-8"?>
<!-- Generator: Adobe Illustrator 19.2.0, SVG Export Plug-In . SVG Version: 6.00 Build 0)  -->
<svg version="1.1" id="Laag_1" xmlns="http://www.w3.org/2000/svg" xmlns:xlink="http://www.w3.org/1999/xlink" x="0px" y="0px"
	 viewBox="0 0 19.5 17.4" style="enable-background:new 0 0 19.5 17.4;" xml:space="preserve">
<style type="text/css">
	.st0{fill:#FFFFFF;}
</style>
<g>
	<title>figment-logo</title>
	<g>
		<g>
			<path class="st0" d="M7.2,7.6c0,0.5,0.1,0.9,0.3,1.3l-3.6,3.6c-0.4-0.2-0.8-0.3-1.3-0.3c-1.4,0-2.6,1.2-2.6,2.6s1.2,2.6,2.6,2.6
				s2.6-1.2,2.6-2.6c0-0.5-0.1-0.9-0.3-1.3L8.5,10c0.4,0.2,0.8,0.3,1.3,0.3s0.9-0.1,1.3-0.3l3.5,3.5c-0.2,0.2-0.3,0.7-0.3,1.1
				c0,1.4,1.2,2.6,2.6,2.6s2.6-1.2,2.6-2.6c0-1.4-1.2-2.6-2.6-2.6c-0.5,0-0.9,0.1-1.3,0.3l-3.5-3.6c0.2-0.2,0.3-0.7,0.3-1.1
				c0-1.5-1.2-2.6-2.6-2.6S7.2,6.1,7.2,7.6L7.2,7.6z M3.9,14.7c0,0.7-0.5,1.2-1.2,1.2s-1.2-0.5-1.2-1.2s0.5-1.2,1.2-1.2
				C3.4,13.4,3.9,14,3.9,14.7L3.9,14.7z M18.1,14.7c0,0.7-0.5,1.2-1.2,1.2c-0.7,0-1.2-0.5-1.2-1.2s0.5-1.2,1.2-1.2
				C17.6,13.4,18.1,14,18.1,14.7L18.1,14.7z M11,7.6c0,0.7-0.5,1.2-1.2,1.2S8.6,8.3,8.6,7.6s0.5-1.2,1.2-1.2C10.5,6.3,11,6.9,11,7.6
				L11,7.6z"/>
		</g>
	</g>
	<g>
		<path class="st0" d="M16.8,3.2L15.5,2L14,3.5l1.2,1.2L16.8,3.2z M10.6,0L8.9,0v2.4h1.7V0z M5.5,3.5L4,2L2.8,3.2l1.5,1.4L5.5,3.5z"
			/>
	</g>
</g>
</svg>
