<?xml version="1.0" encoding="utf-8"?>
<!-- Generator: Adobe Illustrator 19.2.0, SVG Export Plug-In . SVG Version: 6.00 Build 0)  -->
<svg version="1.1" id="Laag_1" xmlns="http://www.w3.org/2000/svg" xmlns:xlink="http://www.w3.org/1999/xlink" x="0px" y="0px"
	 viewBox="0 0 22.7 24" style="enable-background:new 0 0 22.7 24;" xml:space="preserve">
<style type="text/css">
	.st0{fill:none;stroke:#FFFFFF;stroke-width:1.5;stroke-miterlimit:10;}
	.st1{fill:none;stroke:#FFFFFF;stroke-width:1.5;stroke-linecap:round;stroke-miterlimit:10;}
	.st2{fill:none;stroke:#FFFFFF;stroke-width:1.5;stroke-linecap:round;stroke-miterlimit:10;stroke-dasharray:0,7.0969;}
	.st3{fill:#FFFFFF;}
</style>
<title>figment-logo</title>
<circle class="st0" cx="11.4" cy="11.3" r="7.1"/>
<circle class="st0" cx="11.4" cy="11.3" r="2.1"/>
<g>
	<g>
		<line class="st1" x1="3.8" y1="18.8" x2="3.8" y2="18.8"/>
		<path class="st2" d="M0.9,12.5c0-0.4-0.1-0.8-0.1-1.1c0-5.8,4.7-10.6,10.6-10.6S22,5.4,22,11.4c0,1.6-0.4,3.1-1,4.5"/>
		<line class="st1" x1="18.9" y1="18.7" x2="18.9" y2="18.7"/>
	</g>
</g>
<line class="st0" x1="11.4" y1="13.2" x2="11.4" y2="18.8"/>
<g>
	<path class="st3" d="M8.2,18.2V21c0,1.6,1.3,3,2.9,3h0.8c1.6,0,2.9-1.3,2.9-3v-2.8 M11.9,22.6h-0.8c-0.7,0-1.3-0.5-1.5-1.1h3.8
		C13.2,22.1,12.6,22.6,11.9,22.6L11.9,22.6z M13.4,20.1h-4v-0.7h4V20.1z"/>
</g>
</svg>
