<?xml version="1.0" encoding="utf-8"?>
<!-- Generator: Adobe Illustrator 19.2.0, SVG Export Plug-In . SVG Version: 6.00 Build 0)  -->
<svg version="1.1" id="Laag_1" xmlns="http://www.w3.org/2000/svg" xmlns:xlink="http://www.w3.org/1999/xlink" x="0px" y="0px"
	 viewBox="0 0 141.6 141.6" style="enable-background:new 0 0 141.6 141.6;" xml:space="preserve">
<style type="text/css">
	.st0{fill:#F0504F;}
</style>
<path class="st0" d="M131,46.4H95.2V10.6C95.2,4.7,90.4,0,84.6,0H56.9c-5.8,0-10.6,4.7-10.6,10.6v35.8H10.6C4.7,46.4,0,51.1,0,56.9
	v27.7c0,5.8,4.7,10.6,10.6,10.6h35.8V131c0,5.8,4.7,10.6,10.6,10.6h27.7c5.8,0,10.6-4.7,10.6-10.6V95.2H131
	c5.8,0,10.6-4.7,10.6-10.6V56.9C141.6,51.1,136.8,46.4,131,46.4z"/>
</svg>
