<?xml version="1.0" encoding="utf-8"?>
<!-- Generator: Adobe Illustrator 19.2.0, SVG Export Plug-In . SVG Version: 6.00 Build 0)  -->
<svg version="1.1" id="Laag_1" xmlns="http://www.w3.org/2000/svg" xmlns:xlink="http://www.w3.org/1999/xlink" x="0px" y="0px"
	 viewBox="0 0 19.6 16.8" style="enable-background:new 0 0 19.6 16.8;" xml:space="preserve">
<style type="text/css">
	.st0{fill-rule:evenodd;clip-rule:evenodd;fill:#FFFFFF;}
</style>
<g>
	<path class="st0" d="M18.5,0h-3.9c-2.1,0-3.8,0.6-4.8,1.5C8.8,0.6,7.1,0,5,0H1.1C0.5,0,0,0.5,0,1.1V14c0,0.6,0.5,1.1,1.1,1.1H5
		c1.5,0,3.1,0.6,3.7,1.2c0.3,0.3,0.6,0.4,1,0.4h0.1c0.4,0,0.7-0.2,1-0.4c0.6-0.6,2.2-1.3,3.7-1.3h3.9c0.6,0,1.1-0.5,1.1-1.1V1.1
		C19.6,0.5,19.1,0,18.5,0L18.5,0z M9,14.4c-1-0.6-2.4-0.9-3.9-0.9H1.7V1.7H5c2.4,0,3.9,1,3.9,1.7V14.4z M18,13.5h-3.4
		c-1.6,0-2.9,0.3-3.9,0.9v-11c0-0.7,1.5-1.7,3.9-1.7H18V13.5z M18,13.5"/>
</g>
</svg>
